<?xml version="1.0" encoding="utf-8"?>
<!-- Generator: Adobe Illustrator 26.0.2, SVG Export Plug-In . SVG Version: 6.00 Build 0)  -->
<svg version="1.1" id="Layer_1" xmlns="http://www.w3.org/2000/svg" xmlns:xlink="http://www.w3.org/1999/xlink" x="0px" y="0px"
	 viewBox="0 0 512 512" style="enable-background:new 0 0 512 512;" xml:space="preserve">
<style type="text/css">
	.st0{fill:#000000;}
</style>
<g>
	<path class="st0" d="M166.6,43.4c6.1,0,11.5,1.2,16,3.7c4.6,2.5,8.1,6,10.7,10.7s3.8,10.3,3.8,16.9c0,6.5-1.3,12.1-3.9,16.9
		s-6.2,8.6-10.8,11.3s-9.9,4.1-15.9,4.1c-6.1,0-11.5-1.2-16.1-3.7c-4.6-2.5-8.1-6.1-10.7-10.7c-2.5-4.7-3.8-10.3-3.8-16.9
		c0-6.5,1.3-12.1,3.9-17c2.6-4.8,6.2-8.6,10.8-11.3C155.3,44.8,160.6,43.4,166.6,43.4z M166.2,45c-3.2,0-6,1.3-8.4,3.9
		c-2.4,2.6-4.2,6.2-5.5,10.7c-1.3,4.6-1.9,9.8-1.9,15.8c0,6.1,0.7,11.4,2.2,16c1.5,4.5,3.5,8,6,10.5c2.5,2.4,5.3,3.7,8.4,3.7
		c3.2,0,6-1.3,8.4-3.9c2.4-2.6,4.2-6.2,5.5-10.8c1.3-4.6,1.9-9.8,1.9-15.8c0-6.2-0.7-11.5-2.2-16s-3.5-8-6-10.4
		C172.1,46.2,169.3,45,166.2,45z"/>
	<path class="st0" d="M163.4,138.7v1.7c-1.9,0.1-3.2,0.3-4.2,0.6c-0.9,0.4-1.6,1.1-1.9,2.1s-0.4,2.6-0.4,4.7v42.9
		c0,2.1,0.2,3.6,0.5,4.7c0.3,1,0.9,1.7,1.9,2.1s2.3,0.6,4.1,0.7v1.7c-1.6-0.1-3.5-0.2-5.9-0.2s-4.8,0-7.2,0c-2.8,0-5.4,0-7.8,0
		c-2.4,0-4.4,0.1-5.8,0.2v-1.7c1.8-0.1,3.2-0.4,4.1-0.7c0.9-0.4,1.5-1,1.9-2.1c0.3-1,0.5-2.6,0.5-4.7v-42.9c0-2.1-0.2-3.7-0.5-4.7
		c-0.3-1-0.9-1.7-1.9-2.1c-0.9-0.4-2.3-0.6-4.1-0.6v-1.7c1.4,0.1,3.4,0.1,5.8,0.2c2.4,0.1,5.1,0.1,7.8,0.1c2.4,0,4.8,0,7.2-0.1
		C159.9,138.8,161.9,138.8,163.4,138.7z M193.4,138.7v1.6c-1.9,0.4-3.8,1.2-5.9,2.4c-2.1,1.2-4.3,3.2-6.6,5.9L164.6,168l5-7.2
		l20.6,32.1c0.8,1.3,1.7,2.4,2.6,3.2c0.9,0.8,2.1,1.5,3.6,2.1v1.7c-2-0.1-4.3-0.2-6.8-0.2s-4.7,0-6.8,0c-1.2,0-2.7,0-4.4,0
		c-1.7,0-3.9,0.1-6.6,0.2v-1.7c2.4-0.1,3.8-0.4,4.3-1s0.3-1.5-0.6-2.9L163,174c-0.8-1.3-1.5-2.3-2.2-3c-0.6-0.7-1.3-1.1-1.9-1.4
		c-0.6-0.3-1.5-0.4-2.5-0.5v-1.8c2.5-0.1,4.8-0.8,6.8-2.1c2-1.3,4.2-3.3,6.5-6.1l5.1-6.1c2.2-2.6,3.5-4.8,3.9-6.7s0-3.3-1.1-4.4
		c-1.1-1-2.8-1.6-5.1-1.6v-1.6c2.1,0.1,4.2,0.1,6.1,0.2s4.2,0.1,6.7,0.1C188.6,139,191.3,138.9,193.4,138.7z"/>
	<path class="st0" d="M165.3,231.6c3.4,0,6,0.4,7.9,1.1c1.8,0.7,3.4,1.5,4.8,2.3c0.7,0.4,1.2,0.7,1.7,0.9s0.9,0.3,1.2,0.3
		c0.9,0,1.6-1.3,1.9-3.8h2c-0.1,1.1-0.1,2.4-0.2,3.9c-0.1,1.5-0.1,3.5-0.2,6s0,5.7,0,9.8h-2c-0.2-3-0.9-5.9-2.1-8.7
		c-1.1-2.8-2.8-5.1-4.9-7c-2.1-1.8-4.7-2.7-7.7-2.7c-2.8,0-5.1,0.8-6.8,2.3s-2.7,3.7-2.7,6.5c0,2.3,0.6,4.3,1.7,5.9s2.8,3.2,5.1,4.8
		s4.9,3.4,8.1,5.6c2.8,1.8,5.2,3.6,7.4,5.4c2.2,1.8,3.9,3.8,5.3,6c1.3,2.2,2,4.9,2,8c0,3.8-1,7-3,9.4c-2,2.5-4.6,4.3-7.8,5.6
		s-6.8,1.9-10.6,1.9c-3.6,0-6.4-0.4-8.6-1s-3.9-1.4-5.4-2.2c-1.3-0.8-2.2-1.2-2.9-1.2c-0.9,0-1.6,1.3-1.9,3.8h-2
		c0.1-1.4,0.2-3,0.2-4.8c0-1.8,0.1-4.2,0.1-7.2s0-6.7,0-11.3h2c0.2,3.8,0.9,7.4,1.9,10.7c1.1,3.3,2.7,6,4.9,8c2.2,2,5.2,3,8.9,3
		c3,0,5.5-0.8,7.6-2.4c2.1-1.6,3.1-4,3.1-7.3c0-3.6-1.2-6.5-3.6-8.9s-5.5-4.7-9.3-7.2c-2.7-1.8-5.2-3.6-7.6-5.4
		c-2.4-1.8-4.2-3.8-5.7-6.1c-1.4-2.3-2.1-5.1-2.1-8.2c0-3.6,0.9-6.6,2.7-8.9c1.8-2.3,4.2-4.1,7.2-5.2
		C158.8,232.2,161.9,231.6,165.3,231.6z"/>
	<g>
		
			<rect x="340.6" y="203" transform="matrix(0.7071 -0.7071 0.7071 0.7071 -72.4433 315.3222)" class="st0" width="7.6" height="84.2"/>
		
			<rect x="371.6" y="274.6" transform="matrix(0.7071 -0.7071 0.7071 0.7071 -85.0842 345.8448)" class="st0" width="6.6" height="2.1"/>
		
			<rect x="308.9" y="210.6" transform="matrix(0.7071 -0.7071 0.7071 0.7071 -59.3027 283.5994)" class="st0" width="7.6" height="5.5"/>
		<polygon class="st0" points="373,279.1 378.4,273.7 387.9,288.6 		"/>
		<path class="st0" d="M323.6,192.1c0,0-14.2,6.4-20.9,16.7s-17.6,28.7-14.1,32.5c0.2,0.2,0.5,0.6,0.5,0.6l1,1
			c0,0,1.7-10.5,14.1-26.7c1.3-1.7,2.6-3.3,2.6-3.3l1.2,1.2l5.4-5.4c-3.3-3.3-1.4-6,1.7-7.8c6.1-3.5,8.7-3.4,10.4-5.1
			C327.2,194.2,323.6,192.1,323.6,192.1z M308.8,209.5c-0.7,0.7-1.9,0.7-2.6,0c-0.7-0.7-0.7-1.9,0-2.6s1.9-0.7,2.6,0
			C309.5,207.6,309.5,208.8,308.8,209.5z"/>
		
			<rect x="298.7" y="241.3" transform="matrix(0.7071 -0.7071 0.7071 0.7071 -73.501 312.7819)" class="st0" width="84.2" height="7.6"/>
		
			<rect x="309.2" y="272.3" transform="matrix(0.7071 -0.7071 0.7071 0.7071 -104.027 300.1396)" class="st0" width="2.1" height="6.6"/>
		
			<rect x="369.8" y="209.6" transform="matrix(0.7071 -0.7071 0.7071 0.7071 -41.7793 325.9221)" class="st0" width="5.5" height="7.6"/>
		<polygon class="st0" points="312.2,279.1 306.9,273.7 297.3,288.6 		"/>
		<path class="st0" d="M359.7,195.9c1.7,1.7,4.3,1.6,10.4,5.1c3.1,1.8,5,4.5,1.7,7.8l5.4,5.4l1.2-1.2c0,0,1.3,1.6,2.6,3.3
			c12.4,16.2,14.1,26.7,14.1,26.7l1-1c0,0,0.3-0.4,0.5-0.6c3.5-3.9-7.3-22.3-14.1-32.5s-20.9-16.7-20.9-16.7S358,194.2,359.7,195.9z
			 M376.4,206.9c0.7-0.7,1.9-0.7,2.6,0c0.7,0.7,0.7,1.9,0,2.6s-1.9,0.7-2.6,0C375.7,208.8,375.7,207.6,376.4,206.9z"/>
	</g>
	<rect x="254.2" y="19.1" class="st0" width="4.6" height="250.4"/>
	<rect x="256.5" y="165.7" class="st0" width="172.2" height="4.6"/>
	<g>
		<polygon class="st0" points="339.2,400.1 339.1,400.1 337.5,404.8 340.8,404.8 		"/>
		<path class="st0" d="M227.1,372.8c-0.3-0.4-0.6-0.7-1.1-1c-0.4-0.2-1-0.4-1.6-0.4c-0.6,0-1.2,0.1-1.6,0.4c-0.4,0.2-0.8,0.6-1.1,1
			s-0.5,0.9-0.6,1.4s-0.2,1.1-0.2,1.6c0,0.5,0.1,1.1,0.2,1.6s0.3,1,0.6,1.4c0.3,0.4,0.6,0.7,1.1,1s1,0.4,1.6,0.4
			c0.6,0,1.2-0.1,1.6-0.4c0.4-0.2,0.8-0.6,1.1-1c0.3-0.4,0.5-0.9,0.6-1.4c0.1-0.5,0.2-1,0.2-1.6c0-0.6-0.1-1.1-0.2-1.6
			S227.4,373.2,227.1,372.8z"/>
		<path class="st0" d="M210.3,399.5c-0.2-0.1-0.5-0.2-0.8-0.3c-0.3,0-0.6-0.1-0.9-0.1h-2.2v3.8h2.2c0.3,0,0.6,0,0.9-0.1
			c0.3,0,0.6-0.1,0.8-0.3c0.2-0.1,0.4-0.3,0.5-0.6c0.1-0.2,0.2-0.6,0.2-1c0-0.4-0.1-0.7-0.2-1C210.7,399.8,210.5,399.6,210.3,399.5z
			"/>
		<path class="st0" d="M323.7,399.1h-3.1v3.6h3.1c0.6,0,1.1-0.1,1.4-0.4c0.3-0.3,0.5-0.8,0.5-1.4c0-0.6-0.2-1.1-0.5-1.4
			C324.8,399.2,324.3,399.1,323.7,399.1z"/>
		<path class="st0" d="M428.7,8.1h-6.5H90.8h-6.5h-6.5v320.8H78c2.2,40,31.9,81,88.6,122.1c43.1,31.2,85.5,50.5,87.3,51.3l2.7,1.2
			l2.7-1.2c1.8-0.8,44.2-20,87.3-51.3c56.6-41.1,86.4-82.1,88.6-122.1h0.2V8.1H428.7z M177.2,396.9h3.5l-5,5l5.5,7.7h-3.5l-3.8-5.7
			l-1.6,1.6v4.1h-2.8v-12.8h2.8v5.3L177.2,396.9z M185.9,409.7v-12.8h2.8v12.8H185.9z M194.7,409.7v-12.8h2.8v12.8H194.7z
			 M327.2,404.1c0.2,0.2,0.4,0.4,0.6,0.7c0.1,0.3,0.2,0.6,0.3,0.9c0.1,0.3,0.1,0.6,0.1,1c0,0.2,0,0.4,0,0.7c0,0.3,0,0.5,0.1,0.8
			c0,0.3,0.1,0.6,0.1,0.8c0.1,0.3,0.2,0.5,0.3,0.6H326c-0.1-0.4-0.2-0.9-0.3-1.5c0-0.6-0.1-1.1-0.2-1.6c-0.1-0.7-0.3-1.1-0.6-1.5
			s-0.8-0.5-1.5-0.5h-2.8v5h-2.8v-12.8h6.9c0.6,0,1.1,0.1,1.5,0.3c0.5,0.2,0.9,0.4,1.2,0.8s0.6,0.7,0.8,1.1c0.2,0.4,0.3,0.9,0.3,1.4
			c0,0.8-0.2,1.4-0.5,2c-0.3,0.5-0.8,1-1.5,1.2v0C326.7,403.8,327,403.9,327.2,404.1z M332.9,409.7l4.8-12.8h2.9l4.8,12.8h-2.9
			l-1-2.8h-4.8l-1,2.8H332.9z M311.8,404.9c0,1.7-0.5,3-1.5,3.9c-1,0.8-2.3,1.3-4,1.3c-1.7,0-3.1-0.4-4-1.2c-1-0.8-1.4-2.1-1.4-3.9
			v-7.9h2.8v7.9c0,0.4,0,0.7,0.1,1c0.1,0.3,0.2,0.6,0.4,0.9c0.2,0.3,0.5,0.5,0.8,0.6c0.3,0.2,0.8,0.2,1.4,0.2c1,0,1.7-0.2,2.1-0.7
			s0.6-1.1,0.6-2.1v-7.9h2.8L311.8,404.9L311.8,404.9z M310.4,357.5H203.1v-4.6h107.3V357.5z M285.9,396.9h9.5v2.4h-6.7v2.7h6.2v2.2
			h-6.2v3.1h6.9v2.4h-9.7L285.9,396.9L285.9,396.9z M284,382.1v-12.8h2.8l5.3,8.5h0v-8.5h2.6v12.8h-2.8l-5.3-8.5h0v8.5H284z
			 M270,378.3c0.1,0.3,0.2,0.6,0.4,0.9c0.2,0.3,0.5,0.5,0.8,0.6c0.3,0.2,0.8,0.2,1.4,0.2c1,0,1.7-0.2,2.1-0.7s0.6-1.1,0.6-2.1v-7.9
			h2.8v7.9c0,1.7-0.5,3-1.5,3.9s-2.3,1.3-4,1.3c-1.7,0-3.1-0.4-4-1.2c-1-0.8-1.4-2.1-1.4-3.9v-7.9h2.8v7.9
			C269.9,377.6,269.9,378,270,378.3z M277.6,405.4c-0.2-0.2-0.5-0.4-0.9-0.5c-0.4-0.1-0.8-0.3-1.2-0.4c-0.5-0.1-0.9-0.2-1.4-0.4
			c-0.5-0.1-0.9-0.3-1.4-0.4c-0.5-0.2-0.9-0.4-1.2-0.7c-0.4-0.3-0.6-0.6-0.9-1s-0.3-0.9-0.3-1.5c0-0.6,0.1-1.2,0.4-1.7
			c0.3-0.5,0.6-0.9,1.1-1.2c0.5-0.3,1-0.6,1.5-0.7s1.1-0.2,1.7-0.2c0.7,0,1.3,0.1,1.9,0.2c0.6,0.1,1.2,0.4,1.6,0.7s0.9,0.8,1.1,1.3
			s0.4,1.1,0.4,1.9h-2.7c0-0.4-0.1-0.7-0.2-1c-0.1-0.2-0.3-0.5-0.5-0.6c-0.2-0.1-0.5-0.2-0.8-0.3s-0.6-0.1-1-0.1
			c-0.2,0-0.5,0-0.7,0.1c-0.2,0-0.4,0.1-0.6,0.2s-0.3,0.3-0.5,0.5c-0.1,0.2-0.2,0.4-0.2,0.7c0,0.2,0,0.5,0.1,0.6
			c0.1,0.1,0.3,0.3,0.6,0.4c0.3,0.1,0.7,0.3,1.2,0.4c0.5,0.1,1.1,0.3,1.9,0.5c0.2,0,0.6,0.1,1,0.3c0.4,0.1,0.8,0.3,1.3,0.6
			s0.8,0.6,1.1,1.1s0.5,1,0.5,1.8c0,0.6-0.1,1.1-0.3,1.6s-0.6,0.9-1,1.3c-0.4,0.4-1,0.6-1.7,0.9s-1.4,0.3-2.3,0.3
			c-0.7,0-1.4-0.1-2-0.3c-0.7-0.2-1.2-0.4-1.8-0.8s-0.9-0.8-1.2-1.4s-0.4-1.2-0.4-2h2.7c0,0.4,0.1,0.8,0.2,1.1
			c0.1,0.3,0.4,0.5,0.6,0.7c0.3,0.2,0.6,0.3,0.9,0.4s0.7,0.1,1.1,0.1c0.2,0,0.5,0,0.8-0.1c0.3,0,0.6-0.1,0.8-0.2
			c0.2-0.1,0.5-0.3,0.6-0.5s0.2-0.5,0.2-0.8C277.9,405.9,277.8,405.6,277.6,405.4z M253.8,396.9h3.1l3,5l3-5h3.1l-4.7,7.9v4.9h-2.8
			v-5L253.8,396.9z M262,379.8v2.4h-9v-12.8h2.8v10.4H262z M236.1,377.3v-7.9h2.8v7.9c0,0.4,0,0.7,0.1,1c0.1,0.3,0.2,0.6,0.4,0.9
			c0.2,0.3,0.4,0.5,0.8,0.6c0.3,0.2,0.8,0.2,1.4,0.2c1,0,1.7-0.2,2.1-0.7s0.6-1.1,0.6-2.1v-7.9h2.8v7.9c0,1.7-0.5,3-1.4,3.9
			c-1,0.8-2.3,1.3-4,1.3c-1.7,0-3.1-0.4-4-1.2C236.6,380.3,236.1,379,236.1,377.3z M237,396.9v12.8h-2.8v-12.8H237z M243,396.9h2.8
			v10.4h6.2v2.4h-9V396.9z M228,402v2.2h-6.2v3.1h6.9v2.4H219v-12.8h9.5v2.4h-6.7v2.7L228,402L228,402z M227.1,381.9
			c-0.8,0.3-1.6,0.5-2.6,0.5c-1,0-1.9-0.2-2.6-0.5c-0.8-0.3-1.4-0.8-2-1.4c-0.5-0.6-0.9-1.3-1.2-2.1c-0.3-0.8-0.4-1.7-0.4-2.6
			c0-1,0.1-1.8,0.4-2.6s0.7-1.5,1.2-2.1c0.5-0.6,1.2-1.1,2-1.4s1.6-0.5,2.6-0.5c1,0,1.9,0.2,2.6,0.5c0.8,0.4,1.4,0.8,2,1.4
			c0.5,0.6,0.9,1.3,1.2,2.1c0.3,0.8,0.4,1.7,0.4,2.6c0,0.9-0.1,1.8-0.4,2.6c-0.3,0.8-0.7,1.5-1.2,2.1
			C228.5,381.1,227.9,381.6,227.1,381.9z M213.7,401c0,0.5-0.1,1-0.2,1.5c-0.2,0.5-0.4,0.9-0.8,1.3s-0.8,0.7-1.4,0.9s-1.2,0.4-2,0.4
			h-2.9v4.6h-2.8v-12.8h5.8c0.8,0,1.5,0.1,2,0.4s1,0.5,1.4,0.9c0.4,0.4,0.6,0.8,0.8,1.3C213.6,400,213.7,400.5,213.7,401z
			 M310.4,428.1v4.6H203.1v-4.6H310.4z M422.2,324.1c0,21-9.2,41.2-23.3,60l-35.2-46.5l-49.4-19.3l-57.9-62.4l-85.2,89.8l-15.4-6.6
			l-41.1,46.1c-14.5-19-24.1-39.6-24.1-61v-303h331.4L422.2,324.1L422.2,324.1z"/>
	</g>
	<g>
		<path class="st0" d="M323,111c-0.6-2.2-1.3-3.8-2.2-4.7c-0.9-0.9-1.8-1.4-2.7-1.4c-1.4,0-2.6,1-3.7,2.9c-1.1,2-1.7,5.3-1.7,9.9
			c0,4.4,0.5,7.5,1.5,9.3c1,1.8,2.2,2.7,3.7,2.7c0.7,0,1.5-0.2,2.3-0.6c0.9-0.4,1.7-1.1,2.4-2c0.4-0.5,0.7-1.1,1-1.8
			c0.1-1.6,0.2-3.2,0.2-5.1C323.9,116.4,323.5,113.3,323,111z"/>
		<path class="st0" d="M258.8,11.9v158.3H432V11.9H258.8z M360.4,47.7c1.4-2.2,3.3-3.8,5.6-4.9c2.3-1.1,4.9-1.7,7.6-1.7
			c4.5,0,8,1.5,10.6,4.4c2.6,3,3.9,7.1,3.9,12.5c0,3.3-0.5,6.2-1.6,8.8c-1,2.6-2.4,4.9-4.2,6.8c-1.7,1.9-3.7,3.5-5.8,4.8
			s-4.3,2.3-6.5,3.1c-2.2,0.8-4.3,1.3-6.2,1.6l-0.2-1.2c1.8-0.5,3.6-1.2,5.4-2.2s3.4-2.2,4.9-3.9c1.5-1.7,2.6-4,3.5-6.9
			c0.4-1.1,0.6-2.4,0.8-3.8c-0.1,0.2-0.2,0.4-0.4,0.6c-1,1.2-2.1,2-3.5,2.5c-1.4,0.5-2.7,0.8-4.1,0.8c-2.2,0-4.2-0.5-6-1.6
			c-1.8-1.1-3.3-2.6-4.4-4.6c-1.1-2-1.7-4.4-1.7-7.2C358.3,52.5,359,49.8,360.4,47.7z M308.6,44.4c3.5-0.1,6.4-0.3,8.8-0.8
			s4.4-1.2,6.1-2.3v26.5c0,1.8,0.3,3,1,3.7c0.7,0.7,1.8,1,3.4,1v1.3c-0.8,0-2-0.1-3.6-0.2c-1.6-0.1-3.2-0.1-4.9-0.1
			c-2.1,0-4.1,0-6,0.1c-2,0.1-3.5,0.1-4.5,0.2v-1.3c1.8,0,3.2-0.3,4.2-1c1-0.7,1.5-2,1.5-4v-15c0-2-0.2-3.4-0.5-4.4
			c-0.4-0.9-1-1.6-1.9-1.8c-0.9-0.3-2.1-0.4-3.7-0.4V44.4z M331.6,129.5c-1,2.6-2.4,4.9-4.2,6.8c-1.7,1.9-3.7,3.5-5.8,4.8
			s-4.3,2.3-6.5,3.1c-2.2,0.8-4.3,1.3-6.2,1.6l-0.2-1.2c1.8-0.5,3.6-1.2,5.4-2.1s3.4-2.2,4.9-3.9c1.5-1.7,2.6-4,3.5-6.9
			c0.4-1.1,0.6-2.4,0.8-3.8c-0.1,0.2-0.2,0.4-0.4,0.6c-1,1.1-2.1,2-3.5,2.5c-1.4,0.5-2.7,0.8-4.1,0.8c-2.2,0-4.2-0.5-6-1.6
			c-1.8-1.1-3.3-2.6-4.4-4.6c-1.1-2-1.7-4.4-1.7-7.2c0-3.2,0.7-5.8,2.1-8s3.3-3.8,5.6-4.9c2.3-1.1,4.9-1.7,7.6-1.7
			c4.5,0,8,1.5,10.6,4.4c2.6,2.9,3.9,7.1,3.9,12.5C333.1,123.9,332.6,126.9,331.6,129.5z M382.8,136.3c-0.8,0-2-0.1-3.6-0.1
			c-1.6-0.1-3.2-0.1-4.9-0.1c-2.1,0-4.1,0-6,0.1c-2,0.1-3.5,0.1-4.5,0.1v-1.3c1.8,0,3.2-0.3,4.2-1c1-0.7,1.5-2,1.5-4v-15
			c0-2-0.2-3.4-0.5-4.4c-0.4-0.9-1-1.6-1.8-1.8c-0.9-0.3-2.1-0.4-3.7-0.4V107c3.5-0.1,6.5-0.3,8.8-0.8c2.3-0.4,4.4-1.2,6.1-2.3v26.5
			c0,1.8,0.3,3,1,3.7c0.7,0.7,1.8,1,3.4,1L382.8,136.3L382.8,136.3z M392.7,92.7H347v45.7h-3.3V92.7h-45.7v-3.3h45.7V43.8h3.3v45.7
			h45.7V92.7z"/>
		<path class="st0" d="M372.8,67.2c0.7,0,1.5-0.2,2.3-0.6c0.9-0.4,1.7-1.1,2.4-2c0.4-0.5,0.7-1.1,1-1.8c0.1-1.6,0.2-3.2,0.2-5.1
			c0-4-0.3-7.1-0.9-9.3c-0.6-2.2-1.3-3.8-2.2-4.7c-0.9-0.9-1.8-1.4-2.7-1.4c-1.4,0-2.6,1-3.7,3c-1.1,2-1.7,5.3-1.7,9.9
			c0,4.4,0.5,7.5,1.5,9.3C370.1,66.3,371.4,67.2,372.8,67.2z"/>
	</g>
</g>
</svg>
